:SAMPLES-PER-SECOND 30
:FULLY-SPECIFIED
:DEGREES
33
root  -48.0309 47.126 2.90515 -161.347 88.5957 -161.495
RightUpLeg  -18.9573 4.35527 3.00083
RightLeg  20.5076 12.2641 1.34861
RightFoot  19.6837 -1.90915 6.49975
RightToes  -4.07455e-010 -1.59028e-015 9.93923e-017
Spine  4.96695 -1.14108 0.0488188
Spine1  11.2155 -0.881895 -1.36342
HEad  -19.3171 0.583549 2.48654
LeftShoulder1  9.93923e-017 0 1.22299e-017
LeftArm  18.3533 56.3477 -75.3604
LeftForeArm  -32.3436 -20.2562 4.31504
LeftHand  1.01002 7.24253 -7.99671
RightShoulder  1.98785e-016 -4.96962e-017 1.55301e-017
RightArm  41.6189 -40.8207 79.7717
RightForeArm  -47.609 20.4022 -19.2987
RightHand  1.06593 -10.714 -2.02951
LeftUpLeg  -17.8847 -9.42459 -1.3205
LeftLeg  18.2266 -2.82159 2.83995
LeftFoot  -1.35739 0.772511 -7.33348
LeftToes  -3.15592e-010 -1.11882e-010 -6.33042e-011
34
root  -46.1263 46.1732 2.87809 -156.182 88.2547 -157.094
RightUpLeg  -20.1058 5.46083 2.59518
RightLeg  12.8471 9.7207 0.412622
RightFoot  20.5633 -2.20734 7.3067
RightToes  -4.07455e-010 -1.59028e-015 9.93923e-017
Spine  5.27035 -1.27413 0.518203
Spine1  11.6573 -0.801512 -1.55969
HEad  -18.5042 1.05386 2.47984
LeftShoulder1  9.93923e-017 0 1.22299e-017
LeftArm  11.164 57.3005 -74.8523
LeftForeArm  -22.2567 -17.216 0.652046
LeftHand  0.986657 6.84563 -9.61774
RightShoulder  1.98785e-016 -4.96962e-017 1.55301e-017
RightArm  41.9556 -41.249 80.508
RightForeArm  -47.5857 20.3583 -19.0406
RightHand  0.994981 -10.3052 -1.30319
LeftUpLeg  -20.1477 -6.80593 -2.12096
LeftLeg  12.8748 -6.12055 2.69179
LeftFoot  -4.21405 0.556397 -6.94211
LeftToes  -3.15592e-010 -1.11882e-010 -6.33042e-011
35
root  -44.2112 44.676 2.90001 -169.773 87.6297 -170.95
RightUpLeg  -20.906 5.15808 1.89737
RightLeg  7.09362 6.64309 0.0489151
RightFoot  24.5822 -3.02517 8.82984
RightToes  -4.07455e-010 -1.59028e-015 9.93923e-017
Spine  6.54163 -1.42016 0.0818407
Spine1  11.6607 -0.722595 -1.78916
HEad  -18.1709 1.10657 2.72194
LeftShoulder1  9.93923e-017 0 1.22299e-017
LeftArm  4.4455 57.4985 -74.1851
LeftForeArm  -15.5209 -14.1305 -1.8508
LeftHand  1.00193 7.12288 -9.76687
RightShoulder  1.98785e-016 -4.96962e-017 1.55301e-017
RightArm  40.2339 -41.8501 81.6078
RightForeArm  -47.0105 20.234 -18.2619
RightHand  1.00182 -10.418 -1.16579
LeftUpLeg  -22.9099 -5.74761 -3.1825
LeftLeg  11.2783 -8.17046 2.46009
LeftFoot  -9.38287 0.269677 -8.72621
LeftToes  -3.15592e-010 -1.11882e-010 -6.33042e-011
36
root  -42.2511 42.5469 2.95349 175.117 86.467 175.391
RightUpLeg  -20.6175 3.01533 1.41751
RightLeg  6.67017 6.80423 0.455332
RightFoot  27.5056 -2.73831 7.54346
RightToes  -4.07455e-010 -1.59028e-015 9.93923e-017
Spine  9.38138 -1.45788 -0.550997
Spine1  11.8419 -0.636647 -2.17466
HEad  -17.9081 0.578745 3.21755
LeftShoulder1  9.93923e-017 0 1.22299e-017
LeftArm  0.0469324 56.7528 -73.2016
LeftForeArm  -11.8321 -11.6996 -3.25868
LeftHand  1.01195 7.30749 -9.67871
RightShoulder  1.98785e-016 -4.96962e-017 1.55301e-017
RightArm  38.973 -42.3025 83.0534
RightForeArm  -47.1184 20.1793 -17.5291
RightHand  1.00832 -10.4441 -1.27391
LeftUpLeg  -23.9589 -6.44867 -4.12647
LeftLeg  11.9977 -8.26706 2.23122
LeftFoot  -13.2982 -0.0252171 -11.3387
LeftToes  -3.15592e-010 -1.11882e-010 -6.33042e-011
37
root  -40.305 40.0418 2.9892 177.728 85.7631 -179.983
RightUpLeg  -21.6334 0.808025 2.63454
RightLeg  15.2733 11.3191 1.16699
RightFoot  20.618 -0.658112 2.25823
RightToes  -4.07455e-010 -1.59028e-015 9.93923e-017
Spine  12.0817 -1.22653 0.361119
Spine1  12.5213 -0.38189 -2.41881
HEad  -18.1597 -0.262692 3.51194
LeftShoulder1  9.93923e-017 0 1.22299e-017
LeftArm  -3.47522 55.1114 -72.0199
LeftForeArm  -7.785 -9.29223 -4.23816
LeftHand  0.973643 6.60048 -9.81936
RightShoulder  1.98785e-016 -4.96962e-017 1.55301e-017
RightArm  39.9603 -41.8215 84.357
RightForeArm  -46.9174 20.1527 -16.2358
RightHand  0.959049 -10.0329 -1.07631
LeftUpLeg  -25.0394 -9.42977 -2.81804
LeftLeg  15.573 -4.65988 2.09448
LeftFoot  -10.4635 0.251633 -10.1314
LeftToes  -3.15592e-010 -1.11882e-010 -6.33042e-011
38
root  -38.4677 37.5222 3.01433 -165.817 85.3778 -162.61
RightUpLeg  -25.5748 2.46078 4.54063
RightLeg  30.888 11.4645 1.20581
RightFoot  4.05967 0.702593 -5.39758
RightToes  -4.07455e-010 -1.59028e-015 9.93923e-017
Spine  13.6294 -0.937436 2.08849
Spine1  12.85 -0.0437772 -2.31457
HEad  -19.9663 -1.09004 3.74501
LeftShoulder1  9.93923e-017 0 1.22299e-017
LeftArm  -9.45837 52.1969 -71.8232
LeftForeArm  -5.70208 -6.33586 -4.96559
LeftHand  0.971138 6.66651 -9.06697
RightShoulder  1.98785e-016 -4.96962e-017 1.55301e-017
RightArm  38.1588 -39.8871 85.3746
RightForeArm  -42.8416 19.8827 -12.3762
RightHand  0.993661 -10.2333 -1.54784
LeftUpLeg  -29.826 -10.3577 -1.05975
LeftLeg  25.5777 -3.66666 3.21218
LeftFoot  -3.55009 0.26171 -3.75784
LeftToes  -3.15592e-010 -1.11882e-010 -6.33042e-011
39
root  -36.7677 35.3333 3.06472 -156.694 84.4582 -153.334
RightUpLeg  -30.4289 4.68594 6.37765
RightLeg  46.9522 8.43068 -2.23185
RightFoot  -11.6986 0.108193 -8.67221
RightToes  -4.07455e-010 -1.59028e-015 9.93923e-017
Spine  15.3647 -0.839881 2.55302
Spine1  12.1606 -0.0393666 -1.85402
HEad  -22.4576 -1.8383 4.6687
LeftShoulder1  9.93923e-017 0 1.22299e-017
LeftArm  -16.6619 47.6772 -73.5244
LeftForeArm  -9.89434 -4.26008 -5.09619
LeftHand  1.11466 8.27312 -5.61913
RightShoulder  1.98785e-016 -4.96962e-017 1.55301e-017
RightArm  27.4038 -37.2279 86.3978
RightForeArm  -32.792 18.2646 -5.89261
RightHand  1.25542 -11.7271 -3.58261
LeftUpLeg  -36.5958 -11.1217 -0.0511256
LeftLeg  40.0028 -5.26282 5.14069
LeftFoot  -1.47401 -0.1946 1.90525
LeftToes  -3.15592e-010 -1.11882e-010 -6.33042e-011
40
root  -35.2382 34.123 3.14801 -163.673 82.7762 -159.948
RightUpLeg  -32.2733 4.89306 7.0863
RightLeg  56.7137 6.56955 -6.52875
RightFoot  -18.9308 -0.328905 -6.77249
RightToes  -4.07455e-010 -1.59028e-015 9.93923e-017
Spine  17.6733 -1.09125 1.19386
Spine1  11.1972 -0.607099 -1.42029
HEad  -22.9604 -2.52329 6.28068
LeftShoulder1  9.93923e-017 0 1.22299e-017
LeftArm  -20.2953 42.0176 -76.2012
LeftForeArm  -14.484 -4.12825 -5.04184
LeftHand  1.20647 8.72558 -1.14999
RightShoulder  1.98785e-016 -4.96962e-017 1.55301e-017
RightArm  16.2052 -35.563 87.7016
RightForeArm  -24.9811 16.4301 -2.00508
RightHand  1.55445 -13.0606 -5.80634
LeftUpLeg  -39.7804 -13.0136 -0.372081
LeftLeg  50.8083 -6.70059 6.56623
LeftFoot  -6.34209 -0.214609 3.22824
LeftToes  -3.15592e-010 -1.11882e-010 -6.33042e-011
41
root  -33.795 34.0359 3.21733 -172.582 80.6522 -168.723
RightUpLeg  -30.4677 3.49239 6.90611
RightLeg  58.7762 5.94304 -8.26382
RightFoot  -20.5099 -0.301197 -4.58941
RightToes  -4.07455e-010 -1.59028e-015 9.93923e-017
Spine  18.5917 -1.56676 -0.214311
Spine1  10.8623 -1.34715 -1.49897
HEad  -20.399 -3.15362 7.49495
LeftShoulder1  9.93923e-017 0 1.22299e-017
LeftArm  -17.4721 36.6539 -78.4487
LeftForeArm  -12.7528 -5.64256 -5.18467
LeftHand  1.00726 7.167 -0.399926
RightShoulder  1.98785e-016 -4.96962e-017 1.55301e-017
RightArm  17.7319 -35.7772 89.1417
RightForeArm  -28.515 17.3886 -4.01724
RightHand  1.50231 -12.7136 -5.82228
LeftUpLeg  -38.3935 -14.1555 -1.39047
LeftLeg  54.2022 -7.65332 6.21604
LeftFoot  -12.3967 -0.0645621 2.26553
LeftToes  -3.15592e-010 -1.11882e-010 -6.33042e-011
42
root  -32.2997 34.5054 3.21627 -174.574 79.2625 -171.571
RightUpLeg  -27.7562 1.95309 6.92821
RightLeg  57.3998 5.99714 -7.7007
RightFoot  -20.9013 -0.205915 -3.12945
RightToes  -4.07455e-010 -1.59028e-015 9.93923e-017
Spine  17.4539 -1.94988 -0.190147
Spine1  10.6456 -1.62165 -2.1389
HEad  -16.9602 -3.67791 7.66718
LeftShoulder1  9.93923e-017 0 1.22299e-017
LeftArm  -10.2058 32.8705 -79.9513
LeftForeArm  -9.66685 -8.6471 -4.73281
LeftHand  0.796658 5.26868 -3.15583
RightShoulder  1.98785e-016 -4.96962e-017 1.55301e-017
RightArm  26.0102 -37.3829 89.955
RightForeArm  -36.6286 19.0197 -8.65596
RightHand  1.20489 -11.2006 -3.93692
LeftUpLeg  -35.6666 -13.2931 -1.77414
LeftLeg  53.1466 -8.70424 4.34244
LeftFoot  -14.9093 -0.0124496 2.22135
LeftToes  -3.15592e-010 -1.11882e-010 -6.33042e-011
43
root  -30.834 35.1708 3.16818 -173.703 78.9902 -171.948
RightUpLeg  -26.2039 0.847132 7.01119
RightLeg  56.677 6.61953 -6.38586
RightFoot  -17.5645 -0.0202422 -0.548271
RightToes  -4.07455e-010 -1.59028e-015 9.93923e-017
Spine  16.0952 -2.04093 0.264263
Spine1  9.72202 -1.49069 -2.96951
HEad  -15.2729 -3.93501 7.46026
LeftShoulder1  9.93923e-017 0 1.22299e-017
LeftArm  -4.13161 30.973 -81.1329
LeftForeArm  -13.7829 -12.6138 -2.93826
LeftHand  0.830348 5.37378 -5.15246
RightShoulder  1.98785e-016 -4.96962e-017 1.55301e-017
RightArm  28.7712 -39.1529 90.0824
RightForeArm  -39.2877 19.4713 -10.4353
RightHand  1.06274 -10.3956 -2.96958
LeftUpLeg  -32.8017 -11.9668 -1.69727
LeftLeg  50.6268 -9.37248 2.87459
LeftFoot  -14.9985 -0.00161174 3.06073
LeftToes  -3.15592e-010 -1.11882e-010 -6.33042e-011
44
root  -29.4365 35.9902 3.12453 -174.587 79.058 -173.605
RightUpLeg  -25.6884 -0.231046 6.65102
RightLeg  57.0198 7.34796 -5.21881
RightFoot  -8.51019 -0.104641 2.05471
RightToes  -4.07455e-010 -1.59028e-015 9.93923e-017
Spine  15.4969 -2.07276 -0.23606
Spine1  8.67763 -1.58557 -3.317
HEad  -15.4255 -3.79473 7.61815
LeftShoulder1  9.93923e-017 0 1.22299e-017
LeftArm  0.50479 30.392 -82.4728
LeftForeArm  -25.9997 -16.9775 0.475616
LeftHand  0.99818 7.05286 -3.80085
RightShoulder  1.98785e-016 -4.96962e-017 1.55301e-017
RightArm  26.7001 -40.5107 90.0407
RightForeArm  -37.5566 19.2326 -9.42463
RightHand  1.16378 -10.9218 -3.86701
LeftUpLeg  -28.8322 -12.1784 -1.80218
LeftLeg  46.7832 -8.93655 2.77323
LeftFoot  -15.4883 0.0102369 3.04536
LeftToes  -3.15592e-010 -1.11882e-010 -6.33042e-011
45
root  -28.0014 36.8394 3.08807 -175.223 79.0448 -174.779
RightUpLeg  -25.5872 -1.1825 6.31462
RightLeg  57.075 7.896 -4.28611
RightFoot  -0.311563 -0.256883 2.37212
RightToes  -4.07455e-010 -1.59028e-015 9.93923e-017
Spine  14.2969 -2.24941 -1.33703
Spine1  8.57193 -2.13017 -2.71919
HEad  -15.9052 -3.23627 7.83266
LeftShoulder1  9.93923e-017 0 1.22299e-017
LeftArm  6.57228 30.398 -83.7726
LeftForeArm  -37.4857 -20.6134 5.07142
LeftHand  1.08189 7.7862 -2.07834
RightShoulder  1.98785e-016 -4.96962e-017 1.55301e-017
RightArm  28.0019 -41.7824 89.9078
RightForeArm  -37.8684 19.2345 -9.11319
RightHand  1.2845 -11.5693 -4.6983
LeftUpLeg  -24.0631 -13.6728 -1.83438
LeftLeg  41.6442 -7.59083 3.32571
LeftFoot  -16.0949 -0.00195416 1.98303
LeftToes  -3.15592e-010 -1.11882e-010 -6.33042e-011
46
root  -26.5013 37.6103 3.05069 -172.504 79.3649 -172.901
RightUpLeg  -25.971 -1.15219 6.54094
RightLeg  56.013 7.97019 -3.95185
RightFoot  1.59255 -0.136365 1.0617
RightToes  -4.07455e-010 -1.59028e-015 9.93923e-017
Spine  11.8273 -2.47753 -2.11362
Spine1  9.12236 -2.798 -1.37805
HEad  -15.9823 -2.36883 7.59151
LeftShoulder1  9.93923e-017 0 1.22299e-017
LeftArm  15.3069 30.6522 -84.4561
LeftForeArm  -44.2288 -23.1238 10.3915
LeftHand  1.0344 7.39933 -3.17622
RightShoulder  1.98785e-016 -4.96962e-017 1.55301e-017
RightArm  33.3352 -43.4385 89.4584
RightForeArm  -41.399 19.6042 -10.2621
RightHand  1.23852 -11.4162 -4.14053
LeftUpLeg  -19.7079 -14.8906 -1.31248
LeftLeg  36.2393 -6.04461 3.67996
LeftFoot  -15.1492 -0.030942 0.849466
LeftToes  -3.15592e-010 -1.11882e-010 -6.33042e-011
